Coordinates
version=1
nRows=22
nColumns=24
inDegrees=yes

Units are S.I. units (second, meters, Newtons, ...)
Angles are in degrees.

endheader
time	pelvis_tilt	pelvis_list	pelvis_rotation	pelvis_tx	pelvis_ty	pelvis_tz	hip_flexion_r	hip_adduction_r	hip_rotation_r	knee_angle_r	ankle_angle_r	subtalar_angle_r	mtp_angle_r	hip_flexion_l	hip_adduction_l	hip_rotation_l	knee_angle_l	ankle_angle_l	subtalar_angle_l	mtp_angle_l	lumbar_extension	lumbar_bending	lumbar_rotation
      5.21000000	    -16.18852188	     -8.72792334	      5.24715873	      2.97035832	     -0.02074262	     -0.49281182	     31.07268064	      8.34225996	     -7.33967290	    -15.44310771	     -7.95649249	      0.44871886	     10.13410722	     17.18325247	    -13.54603912	    -10.08618811	    -52.39650039	    -34.11558880	     20.59602839	     30.90435014	     14.15698220	      8.91649164	     -7.31834730
      5.21500000	    -16.07070168	     -8.80012718	      5.27455072	      2.97627537	     -0.01995526	     -0.49265439	     30.43573966	      8.50332490	     -7.33487508	    -15.15262731	     -7.73300972	      0.53248074	     10.35136460	     17.93946516	    -13.69550874	     -9.83782190	    -53.70999783	    -33.33082497	     18.92529330	     30.28171542	     14.02773972	      9.00184928	     -7.11348278
      5.22000000	    -15.94353668	     -8.83565383	      5.29303617	      2.98219699	     -0.01910236	     -0.49246942	     29.77102726	      8.64452036	     -7.26459242	    -14.84296618	     -7.51828005	      0.57003382	     10.47546600	     18.66618982	    -13.80436392	     -9.63245196	    -54.94983288	    -32.44942560	     17.30419722	     29.56391614	     13.88816562	      9.04835340	     -6.89094941
      5.22500000	    -15.80392757	     -8.83932664	      5.31376526	      2.98819128	     -0.01817890	     -0.49224518	     29.06240552	      8.77084779	     -7.13867130	    -14.49613011	     -7.30875215	      0.52040780	     10.48846798	     19.35150492	    -13.87646945	     -9.45551470	    -56.08753335	    -31.55444213	     15.73676470	     28.86587853	     13.74887671	      9.05153368	     -6.64255966
      5.23000000	    -15.66400952	     -8.80731018	      5.28546375	      2.99406577	     -0.01723986	     -0.49197151	     28.35724058	      8.88442319	     -6.91063274	    -14.16134796	     -7.10478839	      0.50005209	     10.41448263	     20.02339817	    -13.92699585	     -9.35081555	    -57.18946587	    -30.54912315	     14.37432319	     27.92207238	     13.58016594	      9.03413571	     -6.37877100
      5.23500000	    -15.51638235	     -8.75426517	      5.25534266	      3.00003448	     -0.01624745	     -0.49166868	     27.61032742	      8.99107013	     -6.64615204	    -13.78217768	     -6.91762871	      0.39248516	     10.22045013	     20.65053833	    -13.95562473	     -9.27186480	    -58.17400618	    -29.58743019	     13.12171094	     27.08154437	     13.42299190	      8.98789304	     -6.07938177
      5.24000000	    -15.36364101	     -8.66871719	      5.21128998	      3.00597616	     -0.01522721	     -0.49132601	     26.84725195	      9.07660573	     -6.34039461	    -13.39162791	     -6.74496745	      0.23942584	      9.94804789	     21.24490395	    -13.95329273	     -9.22833805	    -59.05948931	    -28.68200688	     11.99105809	     26.33776816	     13.25517105	      8.90637879	     -5.77281265
      5.24500000	    -15.20389210	     -8.56399747	      5.14873387	      3.01186150	     -0.01420889	     -0.49093643	     26.07486310	      9.15305326	     -6.00051498	    -13.00141853	     -6.56840108	      0.06664284	      9.61741678	     21.81533850	    -13.93924246	     -9.21225564	    -59.86564774	    -27.83501528	     11.03105314	     25.67321420	     13.06969766	      8.80675255	     -5.43713462
      5.25000000	    -15.05851394	     -8.41491566	      5.08303599	      3.01777495	     -0.01317740	     -0.49055998	     25.29749994	      9.17815089	     -5.64593038	    -12.58416230	     -6.41914301	     -0.10612567	      9.35422928	     22.36169160	    -13.86521401	     -9.21637029	    -60.54865688	    -27.09488484	     10.15358605	     25.21784522	     12.90824749	      8.65689929	     -5.13297986
      5.25500000	    -14.92006290	     -8.26894241	      5.00442417	      3.02361251	     -0.01216869	     -0.49017720	     24.53447936	      9.20034411	     -5.34791909	    -12.16368668	     -6.30693832	     -0.24523807	      9.16920103	     22.91059684	    -13.79126631	     -9.22117459	    -61.15647807	    -26.45560202	      9.40460659	     24.92988288	     12.74508404	      8.51386617	     -4.77220003
      5.26000000	    -14.76330777	     -8.07507701	      4.87860408	      3.02948612	     -0.01115925	     -0.48971061	     23.73703869	      9.19531023	     -4.95206649	    -11.74267528	     -6.15585257	     -0.38258924	      8.94840278	     23.38611710	    -13.68468737	     -9.28299317	    -61.67371937	    -25.80125551	      8.91486951	     24.65213458	     12.55905311	      8.32828961	     -4.39192763
      5.26500000	    -14.64646731	     -7.89655229	      4.74316048	      3.03539832	     -0.01021780	     -0.48928085	     22.97865113	      9.18502149	     -4.64056903	    -11.30747306	     -6.02621505	     -0.40828209	      8.84693860	     23.88839669	    -13.58929653	     -9.36273632	    -62.10646070	    -25.24352380	      8.46764734	     24.60525761	     12.43921667	      8.16187861	     -4.04781097
      5.27000000	    -14.47772089	     -7.66241925	      4.58973387	      3.04122260	     -0.00919784	     -0.48879939	     22.16411539	      9.13008498	     -4.27862198	    -10.87420922	     -5.92356195	     -0.48773475	      8.69741150	     24.29603720	    -13.43115781	     -9.44709887	    -62.44144213	    -24.68453791	      8.26123986	     24.62011270	     12.23733360	      7.94353517	     -3.63113734
      5.27500000	    -14.36732443	     -7.40168558	      4.42666109	      3.04703337	     -0.00826351	     -0.48832596	     21.42309301	      9.02680753	     -3.98366943	    -10.46050771	     -5.80166162	     -0.46581341	      8.66748043	     24.74636549	    -13.22822691	     -9.53968022	    -62.69276671	    -24.19681348	      8.11140377	     24.79665326	     12.10489440	      7.69038636	     -3.22516583
      5.28000000	    -14.27571882	     -7.13823680	      4.26319552	      3.05285074	     -0.00738699	     -0.48785923	     20.69869485	      8.90822608	     -3.69550011	    -10.03765822	     -5.66764866	     -0.40558182	      8.69006004	     25.20363031	    -13.01368498	     -9.62841842	    -62.87511591	    -23.72848898	      8.08363665	     25.05621888	     12.00396858	      7.43123508	     -2.86244161
      5.28500000	    -14.09585180	     -6.87372479	      4.06578789	      3.05863472	     -0.00641597	     -0.48734427	     19.87251869	      8.80803897	     -3.37009314	     -9.59117684	     -5.61614910	     -0.41568686	      8.75564787	     25.52534439	    -12.82078237	     -9.77165896	    -62.96300299	    -23.27523706	      8.08730602	     25.43554272	     11.79605408	      7.18956906	     -2.43213840
      5.29000000	    -14.01178000	     -6.58097787	      3.86921357	      3.06434900	     -0.00559151	     -0.48683037	     19.17784200	      8.65445228	     -3.10286771	     -9.19424713	     -5.51120319	     -0.34882292	      8.82951090	     25.94973016	    -12.57058396	     -9.88843681	    -63.00163862	    -22.80611830	      8.22818786	     25.80757967	     11.69006437	      6.90481667	     -2.00809671
      5.29500000	    -13.85199465	     -6.28757292	      3.66984707	      3.07011390	     -0.00470452	     -0.48632251	     18.37378390	      8.50517956	     -2.74422676	     -8.74588461	     -5.44932219	     -0.37490125	      8.95646842	     26.25972613	    -12.32721069	    -10.03137172	    -62.94975757	    -22.37339810	      8.36710296	     26.26514745	     11.51416521	      6.62682190	     -1.61662592
      5.30000000	    -13.77582592	     -5.99773446	      3.43376276	      3.07581461	     -0.00396921	     -0.48576946	     17.69472729	      8.35154437	     -2.43533668	     -8.35631639	     -5.34853827	     -0.30352833	      9.03176721	     26.65512415	    -12.09119278	    -10.18994258	    -62.86656255	    -21.88101123	      8.62596448	     26.65900654	     11.42447924	      6.35315567	     -1.18576122
      5.30500000	    -13.69024668	     -5.68883424	      3.20727528	      3.08147496	     -0.00325792	     -0.48521245	     17.01859906	      8.17322765	     -2.12759785	     -7.98547313	     -5.24925731	     -0.29591397	      9.07701042	     27.02580232	    -11.82531773	    -10.34972015	    -62.71888632	    -21.36698722	      8.89448596	     27.03682826	     11.32463147	      6.05239596	     -0.76609853
      5.31000000	    -13.54643769	     -5.39423153	      2.97108479	      3.08717527	     -0.00252556	     -0.48464934	     16.25913102	      8.01341852	     -1.70986649	     -7.57647244	     -5.17741296	     -0.38406625	      9.10136106	     27.31146492	    -11.58767569	    -10.53861771	    -62.50641105	    -20.86640933	      9.12971542	     27.41142045	     11.17238240	      5.77166562	     -0.37924401
      5.31500000	    -13.48430684	     -5.10137446	      2.70931073	      3.09278483	     -0.00195316	     -0.48405823	     15.63476269	      7.84509926	     -1.37170695	     -7.24376992	     -5.05668541	     -0.36626924	      9.10613263	     27.68807218	    -11.35116152	    -10.73098933	    -62.27035993	    -20.31700317	      9.41711146	     27.71410123	     11.09996918	      5.49567745	      0.06168723
